<?xml version="1.0" encoding="utf-8"?>
<!-- Svg Vector Icons : http://www.onlinewebfonts.com/icon -->
<!DOCTYPE svg PUBLIC "-//W3C//DTD SVG 1.1//EN" "http://www.w3.org/Graphics/SVG/1.1/DTD/svg11.dtd">
<svg version="1.1" xmlns="http://www.w3.org/2000/svg" xmlns:xlink="http://www.w3.org/1999/xlink" x="0px" y="0px" viewBox="0 0 1000 1000" enable-background="new 0 0 1000 1000" xml:space="preserve">
<metadata> Svg Vector Icons : http://www.onlinewebfonts.com/icon </metadata>
<g><g transform="translate(0.000000,511.000000) scale(0.100000,-0.100000)"><path fill="#07074B" d="M2245.8,3611.1c-343.1-95.8-678.6-425.6-966.1-945C808.1,1815,390.3,314.1,154.5-1372.7C6.9-2425.1,162.2-3145.8,583.9-3360.5c191.7-97.8,517.6-57.5,839.6,103.5c306.7,153.3,529,337.4,1107.9,910.5c684.3,678.6,782.1,753.3,1085,830c306.7,78.6,646,103.5,1387.8,103.5c743.7,0,1081.1-24.9,1387.8-103.5c299-76.7,373.8-132.3,1056.2-805.1c598.1-588.5,837.7-787.8,1125.2-931.6c322-161,638.3-205.1,830-115c178.3,84.3,318.2,260.7,402.5,508c76.7,226.2,95.8,389.1,93.9,787.8c-1.9,402.5-23,605.7-132.3,1255.5C9382.3,1460.4,8763.2,3007.3,8052,3465.5c-185.9,120.8-346.9,162.9-613.4,162.9c-272.2-1.9-366.1-24.9-787.8-201.3c-550.1-228.1-833.9-285.6-1497.1-299c-814.7-19.2-1196.1,47.9-1838.3,320.1c-145.7,63.3-310.5,126.5-366.1,143.8C2803.6,3638,2381.9,3649.5,2245.8,3611.1z M3240.7,2386.3c935.4-170.6,1424.2-1165.5,985.3-2007c-161-304.8-446.6-546.3-784-661.3c-199.4-67.1-506-84.3-718.8-38.3c-172.5,36.4-452.4,170.6-584.6,281.8c-212.8,176.3-366.1,408.3-454.3,688.1c-36.4,120.8-44.1,184-42.2,393c0,228.1,5.7,264.5,59.4,417.9c80.5,228.1,161,358.5,331.6,531C2357,2321.1,2797.9,2464.9,3240.7,2386.3z M7181.7,2346c122.7-72.8,185.9-178.3,195.5-323.9c9.6-141.9-30.7-239.6-138-331.6c-88.2-78.6-184-107.3-318.2-97.8c-260.7,19.2-431.3,260.7-364.2,513.7c28.8,109.3,172.5,254.9,279.9,283.7C6946,2420.8,7084,2403.5,7181.7,2346z M6146.6,1464.2c162.9-47.9,295.2-228.1,295.2-400.6c0-187.9-141.9-370-322-414.1c-251.1-59.4-502.2,145.7-502.2,412.1c0,172.5,128.4,352.7,285.6,400.6C6018.2,1498.7,6033.5,1498.7,6146.6,1464.2z M8101.8,1425.9c42.2-24.9,103.5-82.4,134.2-128.4c49.8-74.7,55.6-97.8,55.6-239.6c0-143.8-3.8-161-59.4-239.6c-239.6-331.6-745.7-166.7-743.8,243.4C7490.4,1393.3,7820.1,1588.8,8101.8,1425.9z M7128.1,503.9c90.1-36.4,168.7-111.2,218.5-207c57.5-113.1,42.2-289.4-34.5-398.7c-187.9-268.4-617.2-220.4-743.8,84.3C6430.3,308.4,6792.6,645.7,7128.1,503.9z"/><path fill="#07074B" d="M2884.1,1991.4c-417.9-61.3-738-360.4-826.2-774.4c-88.2-416,138-874.1,521.4-1056.2c297.1-139.9,565.5-139.9,862.6,0c477.3,228.1,676.7,828.1,435.1,1305.4C3695,1828.5,3275.2,2048.9,2884.1,1991.4z"/></g></g>
</svg>