<?xml version="1.0" encoding="utf-8"?>
<!-- Svg Vector Icons : http://www.onlinewebfonts.com/icon -->
<!DOCTYPE svg PUBLIC "-//W3C//DTD SVG 1.1//EN" "http://www.w3.org/Graphics/SVG/1.1/DTD/svg11.dtd">
<svg version="1.1" xmlns="http://www.w3.org/2000/svg" xmlns:xlink="http://www.w3.org/1999/xlink" x="0px" y="0px" viewBox="0 0 1000 1000" enable-background="new 0 0 1000 1000" xml:space="preserve">
<metadata> Svg Vector Icons : http://www.onlinewebfonts.com/icon </metadata>
<g><g transform="translate(0.000000,511.000000) scale(0.100000,-0.100000)"><path fill="#07074B" d="M140.9,4350.7C100,4305.4,100,4204.2,100,109.4c0-4094.8,0-4196.1,40.9-4241.3l40.9-45.2h4818.6c4562.3,0,4820.8,2.1,4850.9,38.8c17.2,19.4,38.8,53.8,45.2,75.4c17.2,47.4-34.5,155.1-81.8,174.5c-19.4,6.5-2143.3,12.9-4719.5,12.9H412.3V204.1v4077.6l-45.2,58.1C311.1,4411,201.2,4417.5,140.9,4350.7z"/><path fill="#07074B" d="M7499.2,4029.7c-58.2-58.2-56-152.9,6.5-211.1c45.2-43.1,75.4-47.4,394.2-51.7l346.8-6.5L6952,2302.2C6239,1500.9,5646.7,843.9,5631.6,843.9c-12.9-2.2-374.8,148.6-803.5,331.7s-805.6,333.9-835.8,333.9c-43.1,0-387.7-262.8-1382.9-1057.6C1881.4-127.6,1271.8-618.7,1258.9-638.1c-71.1-92.6,2.2-243.4,116.3-243.4c47.4,0,338.2,221.9,1288.1,982.3c676.4,540.7,1258,1005.9,1294.6,1036.1l68.9,51.7L4826,841.7c441.6-189.6,829.3-344.6,863.8-344.6c56,0,211.1,168,1404.4,1507.8l1342,1507.8l10.8-333.9c8.6-275.7,17.2-338.2,47.4-368.3c53.8-53.9,165.9-47.4,215.4,10.8c34.5,45.2,38.8,96.9,38.8,607.4c0,529.9-2.1,560.1-43.1,601c-40.9,40.9-71.1,43.1-603.1,43.1C7570.2,4072.8,7540.1,4070.7,7499.2,4029.7z"/><path fill="#07074B" d="M7294.5,1419c-6.5-15.1-8.6-1137.3-6.5-2494.4l6.5-2466.4l652.7-6.5l650.5-4.3v2498.7v2498.7h-646.2C7453.9,1444.9,7301,1438.4,7294.5,1419z"/><path fill="#07074B" d="M3363.4-1721.6v-1830.9h646.2h646.2v1830.9V109.4h-646.2h-646.2V-1721.6z"/><path fill="#07074B" d="M5334.3-562.7c-6.5-15.1-8.6-691.4-6.5-1503.5l6.5-1475.5l652.7-6.5l650.5-4.3v1507.8v1507.8h-646.2C5493.7-536.9,5340.8-543.3,5334.3-562.7z"/><path fill="#07074B" d="M1403.2-2550.9v-1001.6l652.7,4.3l650.5,6.5l6.5,997.3l4.3,995.2h-657h-657V-2550.9z"/></g></g>
</svg>