<!-- Generated by IcoMoon.io -->
<svg version="1.1" xmlns="http://www.w3.org/2000/svg" width="992" height="1024" viewBox="0 0 992 1024">
<title></title>
<g id="icomoon-ignore">
</g>
<path fill="#07074B" d="M0.861 570.926c1.839-8.071 3.5-16.184 5.521-24.207 21.388-84.517 92.588-141.032 179.742-142.133 41.572-0.52 83.127-0.082 124.681-0.082 3.833 0 7.65 0 12.674 0 2.564 48.405 20.454 89.631 54.454 123.628-118.456 45.628-165.593 133.93-156.121 257.44-76.564-4.090-149.376-19.987-220.95-42.538 0-57.363 0-114.744 0-172.108zM991.037 741.104c-39.43 19.051-81.15 30.877-124.246 37.469-26.353 4.041-53.020 6.092-81.183 9.231 0-6.605-0.060-11.628 0-16.635 0.391-32.281 0.153-64.531-10.105-95.648-22.927-69.629-68.992-117.115-137.477-143.044-2.88-1.083-5.792-2.124-10.044-3.693 34.529-34.784 52.675-75.949 54.891-124.271 41.963 0 82.871-0.49 123.75 0.265 14.676 0.273 29.638 2.179 43.894 5.694 73.234 18.070 127.581 78.686 138.516 153.247 0.361 2.442 1.328 4.811 2.006 7.208-0.002 56.73-0.002 113.446-0.002 170.178zM750.914 803.326c0 25.764-0.38 51.542 0.227 77.305 0.18 7.798-2.625 11.375-9.307 14.436-37.151 17.059-76.264 27.179-116.448 33.561-119.42 18.961-236.078 4.796-350.989-29.793-18.51-5.564-18.538-5.506-18.525-24.722 0.060-46.383-0.663-92.781 0.333-139.151 2.097-96.173 78.075-175.35 174.008-179.577 50.774-2.231 101.785-1.867 152.574 0.305 72.207 3.079 141.761 62.524 160.811 133.312 8.098 30.062 7.24 60.561 7.317 91.12 0.015 7.741 0 15.466 0 23.202zM502.754 544.107c-80.384-0.378-144.641-64.953-144.475-145.2 0.163-80.504 65.722-145.651 145.936-145.010 79.827 0.64 145.035 66.58 144.325 145.973-0.71 80.189-65.825 144.613-145.786 144.237zM103.344 249.154c0.013-73.633 56.26-136.73 128.544-144.172 75.936-7.815 144.13 41.932 159.003 116.070 0.948 4.731 1.508 9.532 2.154 14.317 1.827 13.295-0.721 23.392-12.203 33.471-28.555 25.053-45.825 57.501-53.698 94.93-0.95 4.503-4.963 9.759-9.021 12.008-96.764 53.565-214.813-16.162-214.78-126.623zM743.585 104.206c76.745 0.073 141.486 60.976 144.79 136.2 3.485 79.582-53.093 145.659-131.081 153.171-23.531 2.261-46.111-1.284-68.058-9.934-4.978-1.959-7.438-4.448-8.328-10.122-8.158-51.979-34.076-93.046-77.487-122.739-5.702-3.891-4.933-8.333-4.54-13.335 5.929-75.101 69.162-133.31 144.703-133.242z"></path>
</svg>
